{  "asset": {    "version": "2.0",    "generator": "THREE.GLTFExporter"  },  "scenes": [    {      "name": "AuxScene",      "nodes": [        3      ]    }  ],  "scene": 0,  "nodes": [    {      "mesh": 0    },    {      "mesh": 1    },    {      "mesh": 2    },    {      "children": [        0,        1,        2      ]    }  ],  "bufferViews": [    {      "buffer": 0,      "byteOffset": 0,      "byteLength": 142848,      "target": 34962,      "byteStride": 12    },    {      "buffer": 0,      "byteOffset": 142848,      "byteLength": 142848,      "target": 34962,      "byteStride": 12    },    {      "buffer": 0,      "byteOffset": 285696,      "byteLength": 142848,      "target": 34962,      "byteStride": 12    },    {      "buffer": 0,      "byteOffset": 428544,      "byteLength": 142848,      "target": 34962,      "byteStride": 12    },    {      "buffer": 0,      "byteOffset": 571392,      "byteLength": 142848,      "target": 34962,      "byteStride": 12    },    {      "buffer": 0,      "byteOffset": 714240,      "byteLength": 142848,      "target": 34962,      "byteStride": 12    }  ],  "buffers": [    {      "byteLength": 857088,      "uri": "data:application/octet-stream;base64,"    }  ],  "accessors": [    {      "bufferView": 0,      "componentType": 5126,      "count": 11904,      "max": [        59.99720001220703,        59.99720764160156,        60      ],      "min": [        -59.99720001220703,        -59.99720001220703,        -60      ],      "type": "VEC3"    },    {      "bufferView": 1,      "componentType": 5126,      "count": 11904,      "max": [        0.99993896484375,        0.99993896484375,        1      ],      "min": [        -0.99993896484375,        -0.99993896484375,        -1      ],      "type": "VEC3"    },    {      "bufferView": 2,      "componentType": 5126,      "count": 11904,      "max": [        59.70222854614258,        59.70223617553711,        59.705013275146484      ],      "min": [        -59.70222091674805,        -59.70223617553711,        -59.705013275146484      ],      "type": "VEC3"    },    {      "bufferView": 3,      "componentType": 5126,      "count": 11904,      "max": [        0.99993896484375,        0.99993896484375,        1      ],      "min": [        -0.99993896484375,        -0.99993896484375,        -1      ],      "type": "VEC3"    },    {      "bufferView": 4,      "componentType": 5126,      "count": 11904,      "max": [        58.99429702758789,        58.99430847167969,        58.99705123901367      ],      "min": [        -58.994293212890625,        -58.994300842285156,        -58.99705123901367      ],      "type": "VEC3"    },    {      "bufferView": 5,      "componentType": 5126,      "count": 11904,      "max": [        0.99993896484375,        0.99993896484375,        1      ],      "min": [        -0.99993896484375,        -0.99993896484375,        -1      ],      "type": "VEC3"    }  ],  "materials": [    {      "pbrMetallicRoughness": {        "baseColorFactor": [          0,          0.049707030616367005,          0.6038273388475408,          1        ],        "metallicFactor": 0.5,        "roughnessFactor": 0.5      },      "doubleSided": true,      "name": "mat0"    },    {      "pbrMetallicRoughness": {        "baseColorFactor": [          0.6038273388475408,          0.6038273388475408,          0.6038273388475408,          1        ],        "metallicFactor": 0.5,        "roughnessFactor": 0.5      },      "doubleSided": true,      "name": "mat1"    },    {      "pbrMetallicRoughness": {        "baseColorFactor": [          0.6038273388475408,          0.6038273388475408,          0.6038273388475408,          1        ],        "metallicFactor": 0.5,        "roughnessFactor": 0.5      },      "doubleSided": true,      "name": "mat2"    }  ],  "meshes": [    {      "primitives": [        {          "mode": 4,          "attributes": {            "POSITION": 0,            "NORMAL": 1          },          "material": 0        }      ]    },    {      "primitives": [        {          "mode": 4,          "attributes": {            "POSITION": 2,            "NORMAL": 3          },          "material": 1        }      ]    },    {      "primitives": [        {          "mode": 4,          "attributes": {            "POSITION": 4,            "NORMAL": 5          },          "material": 2        }      ]    }  ]}