{
    "asset" : {
        "generator" : "Khronos glTF Blender I/O v1.7.33",
        "version" : "2.0"
    },
    "scene" : 0,
    "scenes" : [
        {
            "name" : "Scene",
            "nodes" : [
                0
            ]
        }
    ],
    "nodes" : [
        {
            "mesh" : 0,
            "name" : "Cube",
            "scale" : [
                0.08224143832921982,
                0.01306919939815998,
                0.08224146068096161
            ]
        }
    ],
    "materials" : [
        {
            "doubleSided" : true,
            "name" : "Material",
            "pbrMetallicRoughness" : {
                "baseColorFactor" : [
                    0.1723303347826004,
                    0.19992050528526306,
                    0.19809578359127045,
                    1
                ],
                "metallicFactor" : 0.6967742443084717,
                "roughnessFactor" : 0
            }
        },
        {
            "doubleSided" : true,
            "name" : "Material.001",
            "pbrMetallicRoughness" : {
                "baseColorFactor" : [
                    0.800000011920929,
                    0.800000011920929,
                    0.800000011920929,
                    1
                ],
                "metallicFactor" : 0,
                "roughnessFactor" : 0.5
            }
        }
    ],
    "meshes" : [
        {
            "name" : "Cube",
            "primitives" : [
                {
                    "attributes" : {
                        "POSITION" : 0,
                        "NORMAL" : 1,
                        "TEXCOORD_0" : 2
                    },
                    "indices" : 3,
                    "material" : 0
                },
                {
                    "attributes" : {
                        "POSITION" : 4,
                        "NORMAL" : 5,
                        "TEXCOORD_0" : 6
                    },
                    "indices" : 7,
                    "material" : 1
                }
            ]
        }
    ],
    "accessors" : [
        {
            "bufferView" : 0,
            "componentType" : 5126,
            "count" : 561,
            "max" : [
                4.080085754394531,
                19.971040725708008,
                1
            ],
            "min" : [
                -4.080085754394531,
                0.0725243091583252,
                -1
            ],
            "type" : "VEC3"
        },
        {
            "bufferView" : 1,
            "componentType" : 5126,
            "count" : 561,
            "type" : "VEC3"
        },
        {
            "bufferView" : 2,
            "componentType" : 5126,
            "count" : 561,
            "type" : "VEC2"
        },
        {
            "bufferView" : 3,
            "componentType" : 5123,
            "count" : 1218,
            "type" : "SCALAR"
        },
        {
            "bufferView" : 4,
            "componentType" : 5126,
            "count" : 56,
            "max" : [
                3.8632965087890625,
                19.55702018737793,
                0.9856849908828735
            ],
            "min" : [
                -3.8632965087890625,
                19.24172592163086,
                -0.7042384743690491
            ],
            "type" : "VEC3"
        },
        {
            "bufferView" : 5,
            "componentType" : 5126,
            "count" : 56,
            "type" : "VEC3"
        },
        {
            "bufferView" : 6,
            "componentType" : 5126,
            "count" : 56,
            "type" : "VEC2"
        },
        {
            "bufferView" : 7,
            "componentType" : 5123,
            "count" : 96,
            "type" : "SCALAR"
        }
    ],
    "bufferViews" : [
        {
            "buffer" : 0,
            "byteLength" : 6732,
            "byteOffset" : 0
        },
        {
            "buffer" : 0,
            "byteLength" : 6732,
            "byteOffset" : 6732
        },
        {
            "buffer" : 0,
            "byteLength" : 4488,
            "byteOffset" : 13464
        },
        {
            "buffer" : 0,
            "byteLength" : 2436,
            "byteOffset" : 17952
        },
        {
            "buffer" : 0,
            "byteLength" : 672,
            "byteOffset" : 20388
        },
        {
            "buffer" : 0,
            "byteLength" : 672,
            "byteOffset" : 21060
        },
        {
            "buffer" : 0,
            "byteLength" : 448,
            "byteOffset" : 21732
        },
        {
            "buffer" : 0,
            "byteLength" : 192,
            "byteOffset" : 22180
        }
    ],
    "buffers" : [
        {
            "byteLength" : 22372,
            "uri" : "data:application/octet-stream;base64,"
        }
    ]
}
