{
    "asset" : {
        "generator" : "Khronos glTF Blender I/O v1.7.33",
        "version" : "2.0"
    },
    "scene" : 0,
    "scenes" : [
        {
            "name" : "Scene",
            "nodes" : [
                0,
                1,
                2,
                3,
                4,
                5,
                6,
                7
            ]
        }
    ],
    "nodes" : [
        {
            "mesh" : 0,
            "name" : "Plane",
            "scale" : [
                0.12151522934436798,
                0.12200000137090683,
                0.12200000137090683
            ],
            "translation" : [
                -0.3505050837993622,
                -0.0012719794176518917,
                0.003281567245721817
            ]
        },
        {
            "mesh" : 1,
            "name" : "Cube.001",
            "scale" : [
                0.04123622179031372,
                0.04123622179031372,
                0.04123622179031372
            ],
            "translation" : [
                -0.3811330199241638,
                -0.0006891958764754236,
                0.26045918464660645
            ]
        },
        {
            "mesh" : 2,
            "name" : "Cube.002",
            "scale" : [
                0.04123622179031372,
                0.04123622179031372,
                0.04123622179031372
            ],
            "translation" : [
                -0.3811330199241638,
                -0.0006891958764754236,
                -0.2549079656600952
            ]
        },
        {
            "mesh" : 3,
            "name" : "Cube.003",
            "rotation" : [
                0,
                -0.7071068286895752,
                0,
                0.7071068286895752
            ],
            "scale" : [
                0.04123622179031372,
                0.04123622179031372,
                0.04123622179031372
            ],
            "translation" : [
                -0.4120465815067291,
                -0.0006891958764754236,
                -0.22262118756771088
            ]
        },
        {
            "mesh" : 4,
            "name" : "Cube.004",
            "rotation" : [
                0,
                -0.7071068286895752,
                0,
                0.7071068286895752
            ],
            "scale" : [
                0.04123622179031372,
                0.04123622179031372,
                0.04123622179031372
            ],
            "translation" : [
                0.408345490694046,
                -0.0006891958764754236,
                -0.22262118756771088
            ]
        },
        {
            "mesh" : 5,
            "name" : "Cube.005",
            "rotation" : [
                0,
                0,
                -0.7071067094802856,
                0.7071068286895752
            ],
            "scale" : [
                0.04123622179031372,
                0.04123622179031372,
                0.04123622179031372
            ],
            "translation" : [
                -0.40735936164855957,
                -0.04265444353222847,
                0.26045918464660645
            ]
        },
        {
            "mesh" : 6,
            "name" : "Cube.006",
            "rotation" : [
                0,
                0,
                -0.7071067094802856,
                0.7071068286895752
            ],
            "scale" : [
                0.04123622179031372,
                0.04123622179031372,
                0.04123622179031372
            ],
            "translation" : [
                0.4182918667793274,
                -0.04265444353222847,
                0.26045918464660645
            ]
        },
        {
            "mesh" : 7,
            "name" : "Cube.007",
            "scale" : [
                -0.4190104603767395,
                -0.26545044779777527,
                -0.016172338277101517
            ],
            "translation" : [
                -0.0016343072056770325,
                -0.2667103707790375,
                -0.24791382253170013
            ]
        }
    ],
    "materials" : [
        {
            "doubleSided" : true,
            "name" : "Steel",
            "pbrMetallicRoughness" : {
                "baseColorFactor" : [
                    1,
                    0.9403048753738403,
                    0.7739219665527344,
                    1
                ],
                "metallicFactor" : 0.656000018119812,
                "roughnessFactor" : 0
            }
        },
        {
            "doubleSided" : true,
            "name" : "Metal",
            "pbrMetallicRoughness" : {
                "baseColorFactor" : [
                    0.11209472268819809,
                    0.11209472268819809,
                    0.11209472268819809,
                    1
                ],
                "metallicFactor" : 0.699999988079071,
                "roughnessFactor" : 0
            }
        },
        {
            "doubleSided" : true,
            "name" : "Grey",
            "pbrMetallicRoughness" : {
                "baseColorFactor" : [
                    0.29321569204330444,
                    0.28005239367485046,
                    0.27193528413772583,
                    1
                ],
                "metallicFactor" : 0,
                "roughnessFactor" : 0.6000000238418579
            }
        }
    ],
    "meshes" : [
        {
            "name" : "Plane",
            "primitives" : [
                {
                    "attributes" : {
                        "POSITION" : 0,
                        "NORMAL" : 1,
                        "TEXCOORD_0" : 2
                    },
                    "indices" : 3,
                    "material" : 0
                }
            ]
        },
        {
            "name" : "Cube.001",
            "primitives" : [
                {
                    "attributes" : {
                        "POSITION" : 4,
                        "NORMAL" : 5,
                        "TEXCOORD_0" : 6
                    },
                    "indices" : 7,
                    "material" : 1
                }
            ]
        },
        {
            "name" : "Cube.002",
            "primitives" : [
                {
                    "attributes" : {
                        "POSITION" : 8,
                        "NORMAL" : 9,
                        "TEXCOORD_0" : 10
                    },
                    "indices" : 7,
                    "material" : 1
                }
            ]
        },
        {
            "name" : "Cube.003",
            "primitives" : [
                {
                    "attributes" : {
                        "POSITION" : 11,
                        "NORMAL" : 12,
                        "TEXCOORD_0" : 13
                    },
                    "indices" : 14,
                    "material" : 1
                }
            ]
        },
        {
            "name" : "Cube.004",
            "primitives" : [
                {
                    "attributes" : {
                        "POSITION" : 15,
                        "NORMAL" : 16,
                        "TEXCOORD_0" : 17
                    },
                    "indices" : 14,
                    "material" : 1
                }
            ]
        },
        {
            "name" : "Cube.005",
            "primitives" : [
                {
                    "attributes" : {
                        "POSITION" : 18,
                        "NORMAL" : 19,
                        "TEXCOORD_0" : 20
                    },
                    "indices" : 21,
                    "material" : 1
                }
            ]
        },
        {
            "name" : "Cube.006",
            "primitives" : [
                {
                    "attributes" : {
                        "POSITION" : 22,
                        "NORMAL" : 23,
                        "TEXCOORD_0" : 24
                    },
                    "indices" : 21,
                    "material" : 1
                }
            ]
        },
        {
            "name" : "Cube.007",
            "primitives" : [
                {
                    "attributes" : {
                        "POSITION" : 25,
                        "NORMAL" : 26,
                        "TEXCOORD_0" : 27
                    },
                    "indices" : 28,
                    "material" : 2
                }
            ]
        }
    ],
    "accessors" : [
        {
            "bufferView" : 0,
            "componentType" : 5126,
            "count" : 1072,
            "max" : [
                6.333779811859131,
                0.04370034858584404,
                2.2021024227142334
            ],
            "min" : [
                -0.5789336562156677,
                0,
                -2.2021024227142334
            ],
            "type" : "VEC3"
        },
        {
            "bufferView" : 1,
            "componentType" : 5126,
            "count" : 1072,
            "type" : "VEC3"
        },
        {
            "bufferView" : 2,
            "componentType" : 5126,
            "count" : 1072,
            "type" : "VEC2"
        },
        {
            "bufferView" : 3,
            "componentType" : 5123,
            "count" : 1848,
            "type" : "SCALAR"
        },
        {
            "bufferView" : 4,
            "componentType" : 5126,
            "count" : 528,
            "max" : [
                19.396074295043945,
                -0.02695867419242859,
                0.22737926244735718
            ],
            "min" : [
                -0.9809589982032776,
                -0.33698147535324097,
                -0.22737926244735718
            ],
            "type" : "VEC3"
        },
        {
            "bufferView" : 5,
            "componentType" : 5126,
            "count" : 528,
            "type" : "VEC3"
        },
        {
            "bufferView" : 6,
            "componentType" : 5126,
            "count" : 528,
            "type" : "VEC2"
        },
        {
            "bufferView" : 7,
            "componentType" : 5123,
            "count" : 792,
            "type" : "SCALAR"
        },
        {
            "bufferView" : 8,
            "componentType" : 5126,
            "count" : 528,
            "max" : [
                19.396074295043945,
                -0.02695867419242859,
                0.22737926244735718
            ],
            "min" : [
                -0.9809589982032776,
                -0.33698147535324097,
                -0.22737926244735718
            ],
            "type" : "VEC3"
        },
        {
            "bufferView" : 9,
            "componentType" : 5126,
            "count" : 528,
            "type" : "VEC3"
        },
        {
            "bufferView" : 10,
            "componentType" : 5126,
            "count" : 528,
            "type" : "VEC2"
        },
        {
            "bufferView" : 11,
            "componentType" : 5126,
            "count" : 312,
            "max" : [
                11.942597389221191,
                -0.02695867419242859,
                0.22737926244735718
            ],
            "min" : [
                -1.0162622928619385,
                -0.33698147535324097,
                -0.22737926244735718
            ],
            "type" : "VEC3"
        },
        {
            "bufferView" : 12,
            "componentType" : 5126,
            "count" : 312,
            "type" : "VEC3"
        },
        {
            "bufferView" : 13,
            "componentType" : 5126,
            "count" : 312,
            "type" : "VEC2"
        },
        {
            "bufferView" : 14,
            "componentType" : 5123,
            "count" : 468,
            "type" : "SCALAR"
        },
        {
            "bufferView" : 15,
            "componentType" : 5126,
            "count" : 312,
            "max" : [
                11.942597389221191,
                -0.02695867419242859,
                0.22737926244735718
            ],
            "min" : [
                -1.0162622928619385,
                -0.33698147535324097,
                -0.22737926244735718
            ],
            "type" : "VEC3"
        },
        {
            "bufferView" : 16,
            "componentType" : 5126,
            "count" : 312,
            "type" : "VEC3"
        },
        {
            "bufferView" : 17,
            "componentType" : 5126,
            "count" : 312,
            "type" : "VEC2"
        },
        {
            "bufferView" : 18,
            "componentType" : 5126,
            "count" : 240,
            "max" : [
                8.281327247619629,
                -0.02695867419242859,
                0.22737926244735718
            ],
            "min" : [
                -0.9809589982032776,
                -0.33698147535324097,
                -0.22737926244735718
            ],
            "type" : "VEC3"
        },
        {
            "bufferView" : 19,
            "componentType" : 5126,
            "count" : 240,
            "type" : "VEC3"
        },
        {
            "bufferView" : 20,
            "componentType" : 5126,
            "count" : 240,
            "type" : "VEC2"
        },
        {
            "bufferView" : 21,
            "componentType" : 5123,
            "count" : 360,
            "type" : "SCALAR"
        },
        {
            "bufferView" : 22,
            "componentType" : 5126,
            "count" : 240,
            "max" : [
                8.281327247619629,
                -0.02695867419242859,
                0.22737926244735718
            ],
            "min" : [
                -0.9809589982032776,
                -0.33698147535324097,
                -0.22737926244735718
            ],
            "type" : "VEC3"
        },
        {
            "bufferView" : 23,
            "componentType" : 5126,
            "count" : 240,
            "type" : "VEC3"
        },
        {
            "bufferView" : 24,
            "componentType" : 5126,
            "count" : 240,
            "type" : "VEC2"
        },
        {
            "bufferView" : 25,
            "componentType" : 5126,
            "count" : 24,
            "max" : [
                1,
                0.43563181161880493,
                1
            ],
            "min" : [
                -1,
                -1,
                -0.08768969774246216
            ],
            "type" : "VEC3"
        },
        {
            "bufferView" : 26,
            "componentType" : 5126,
            "count" : 24,
            "type" : "VEC3"
        },
        {
            "bufferView" : 27,
            "componentType" : 5126,
            "count" : 24,
            "type" : "VEC2"
        },
        {
            "bufferView" : 28,
            "componentType" : 5123,
            "count" : 36,
            "type" : "SCALAR"
        }
    ],
    "bufferViews" : [
        {
            "buffer" : 0,
            "byteLength" : 12864,
            "byteOffset" : 0
        },
        {
            "buffer" : 0,
            "byteLength" : 12864,
            "byteOffset" : 12864
        },
        {
            "buffer" : 0,
            "byteLength" : 8576,
            "byteOffset" : 25728
        },
        {
            "buffer" : 0,
            "byteLength" : 3696,
            "byteOffset" : 34304
        },
        {
            "buffer" : 0,
            "byteLength" : 6336,
            "byteOffset" : 38000
        },
        {
            "buffer" : 0,
            "byteLength" : 6336,
            "byteOffset" : 44336
        },
        {
            "buffer" : 0,
            "byteLength" : 4224,
            "byteOffset" : 50672
        },
        {
            "buffer" : 0,
            "byteLength" : 1584,
            "byteOffset" : 54896
        },
        {
            "buffer" : 0,
            "byteLength" : 6336,
            "byteOffset" : 56480
        },
        {
            "buffer" : 0,
            "byteLength" : 6336,
            "byteOffset" : 62816
        },
        {
            "buffer" : 0,
            "byteLength" : 4224,
            "byteOffset" : 69152
        },
        {
            "buffer" : 0,
            "byteLength" : 3744,
            "byteOffset" : 73376
        },
        {
            "buffer" : 0,
            "byteLength" : 3744,
            "byteOffset" : 77120
        },
        {
            "buffer" : 0,
            "byteLength" : 2496,
            "byteOffset" : 80864
        },
        {
            "buffer" : 0,
            "byteLength" : 936,
            "byteOffset" : 83360
        },
        {
            "buffer" : 0,
            "byteLength" : 3744,
            "byteOffset" : 84296
        },
        {
            "buffer" : 0,
            "byteLength" : 3744,
            "byteOffset" : 88040
        },
        {
            "buffer" : 0,
            "byteLength" : 2496,
            "byteOffset" : 91784
        },
        {
            "buffer" : 0,
            "byteLength" : 2880,
            "byteOffset" : 94280
        },
        {
            "buffer" : 0,
            "byteLength" : 2880,
            "byteOffset" : 97160
        },
        {
            "buffer" : 0,
            "byteLength" : 1920,
            "byteOffset" : 100040
        },
        {
            "buffer" : 0,
            "byteLength" : 720,
            "byteOffset" : 101960
        },
        {
            "buffer" : 0,
            "byteLength" : 2880,
            "byteOffset" : 102680
        },
        {
            "buffer" : 0,
            "byteLength" : 2880,
            "byteOffset" : 105560
        },
        {
            "buffer" : 0,
            "byteLength" : 1920,
            "byteOffset" : 108440
        },
        {
            "buffer" : 0,
            "byteLength" : 288,
            "byteOffset" : 110360
        },
        {
            "buffer" : 0,
            "byteLength" : 288,
            "byteOffset" : 110648
        },
        {
            "buffer" : 0,
            "byteLength" : 192,
            "byteOffset" : 110936
        },
        {
            "buffer" : 0,
            "byteLength" : 72,
            "byteOffset" : 111128
        }
    ],
    "buffers" : [
        {
            "byteLength" : 111200,
            "uri" : "data:application/octet-stream;base64,"
        }
    ]
}
